<svg width="24" height="25" viewBox="0 0 24 25" fill="none" xmlns="http://www.w3.org/2000/svg">
<g clip-path="url(#clip0_991_3248)">
<path d="M1.5 13.7455H22.425C22.875 13.7455 23.25 13.3705 23.25 12.9205C23.25 12.4705 22.875 12.0955 22.425 12.0955H1.5C1.05 12.0955 0.674999 12.4705 0.674999 12.9205C0.674999 13.3705 1.05 13.7455 1.5 13.7455Z" fill="#989CA7"/>
<path d="M11.9625 9.84541C12.4125 9.84541 12.7875 9.47041 12.7875 9.02041V5.49541C12.7875 5.04541 12.4125 4.67041 11.9625 4.67041C11.5125 4.67041 11.1375 5.04541 11.1375 5.49541V9.02041C11.1375 9.47041 11.5125 9.84541 11.9625 9.84541Z" fill="#989CA7"/>
<path d="M11.9625 15.9955C11.5125 15.9955 11.1375 16.3705 11.1375 16.8205V20.3455C11.1375 20.7955 11.5125 21.1705 11.9625 21.1705C12.4125 21.1705 12.7875 20.7955 12.7875 20.3455V16.8205C12.825 16.3705 12.45 15.9955 11.9625 15.9955Z" fill="#989CA7"/>
<path d="M18.7875 3.28293H20.8875C21.3 3.28293 21.6 3.62043 21.6 3.99543V6.09544C21.6 6.54544 21.975 6.92043 22.425 6.92043C22.875 6.92043 23.25 6.54544 23.25 6.09544V4.03293C23.25 2.72043 22.1625 1.63293 20.85 1.63293H18.75C18.3 1.63293 17.925 2.00793 17.925 2.45793C17.925 2.90793 18.3 3.28293 18.7875 3.28293Z" fill="#989CA7"/>
<path d="M1.5 6.95791C1.95 6.95791 2.325 6.58291 2.325 6.13291V4.03291C2.325 3.62041 2.6625 3.32041 3.0375 3.32041H5.1375C5.5875 3.32041 5.9625 2.94541 5.9625 2.49541C5.9625 2.04541 5.5875 1.67041 5.1375 1.67041H3.075C1.7625 1.67041 0.674999 2.75791 0.674999 4.07041V6.17041C0.674999 6.58291 1.05 6.95791 1.5 6.95791Z" fill="#989CA7"/>
<path d="M5.175 22.5579H3.075C2.6625 22.5579 2.3625 22.2204 2.3625 21.8454V19.7454C2.3625 19.2954 1.9875 18.9204 1.5375 18.9204C1.0875 18.9204 0.712498 19.2954 0.712498 19.7454V21.8454C0.712498 23.1579 1.8 24.2454 3.1125 24.2454H5.2125C5.6625 24.2454 6.0375 23.8704 6.0375 23.4204C6.0375 22.9704 5.625 22.5579 5.175 22.5579Z" fill="#989CA7"/>
<path d="M22.425 18.8829C21.975 18.8829 21.6 19.2579 21.6 19.7079V21.8079C21.6 22.2204 21.2625 22.5204 20.8875 22.5204H18.7875C18.3375 22.5204 17.9625 22.8954 17.9625 23.3454C17.9625 23.7954 18.3375 24.1704 18.7875 24.1704H20.8875C22.2 24.1704 23.2875 23.0829 23.2875 21.7704V19.6704C23.2875 19.2579 22.9125 18.8829 22.425 18.8829Z" fill="#989CA7"/>
<path d="M8.3625 22.558H7.8375C7.3875 22.558 7.0125 22.933 7.0125 23.383C7.0125 23.833 7.3875 24.208 7.8375 24.208H8.3625C8.8125 24.208 9.1875 23.833 9.1875 23.383C9.1875 22.933 8.85 22.558 8.3625 22.558Z" fill="#989CA7"/>
<path d="M16.2375 22.558H15.7125C15.2625 22.558 14.8875 22.933 14.8875 23.383C14.8875 23.833 15.2625 24.208 15.7125 24.208H16.2375C16.6875 24.208 17.0625 23.833 17.0625 23.383C17.0625 22.933 16.6875 22.558 16.2375 22.558Z" fill="#989CA7"/>
<path d="M7.8375 3.28293H8.3625C8.8125 3.28293 9.1875 2.90793 9.1875 2.45793C9.1875 2.00793 8.8125 1.63293 8.3625 1.63293H7.8375C7.3875 1.63293 7.0125 2.00793 7.0125 2.45793C7.0125 2.90793 7.3875 3.28293 7.8375 3.28293Z" fill="#989CA7"/>
<path d="M15.7125 3.28293H16.2375C16.6875 3.28293 17.0625 2.90793 17.0625 2.45793C17.0625 2.00793 16.6875 1.63293 16.2375 1.63293H15.7125C15.2625 1.63293 14.8875 2.00793 14.8875 2.45793C14.8875 2.90793 15.225 3.28293 15.7125 3.28293Z" fill="#989CA7"/>
<path d="M22.5 7.89539C22.05 7.89539 21.675 8.27039 21.675 8.72039V9.24539C21.675 9.69539 22.05 10.0704 22.5 10.0704C22.95 10.0704 23.325 9.69539 23.325 9.24539V8.72039C23.325 8.27039 22.95 7.89539 22.5 7.89539Z" fill="#989CA7"/>
<path d="M22.5 15.7329C22.05 15.7329 21.675 16.1079 21.675 16.5579V17.0829C21.675 17.5329 22.05 17.9079 22.5 17.9079C22.95 17.9079 23.325 17.5329 23.325 17.0829V16.5579C23.325 16.1079 22.95 15.7329 22.5 15.7329Z" fill="#989CA7"/>
<path d="M1.575 7.89539C1.125 7.89539 0.75 8.27039 0.75 8.72039V9.24539C0.75 9.69539 1.125 10.0704 1.575 10.0704C2.025 10.0704 2.4 9.69539 2.4 9.24539V8.72039C2.4 8.27039 2.025 7.89539 1.575 7.89539Z" fill="#989CA7"/>
<path d="M0.712498 16.5954V17.1204C0.712498 17.5704 1.0875 17.9454 1.5375 17.9454C1.9875 17.9454 2.3625 17.5704 2.3625 17.1204V16.5954C2.3625 16.1454 1.9875 15.7704 1.5375 15.7704C1.0875 15.7704 0.712498 16.1079 0.712498 16.5954Z" fill="#989CA7"/>
</g>
<defs>
<clipPath id="clip0_991_3248">
<rect width="24" height="24" fill="white" transform="translate(0 0.92041)"/>
</clipPath>
</defs>
</svg>
