<svg width="16" height="16" viewBox="0 0 16 16" fill="none" xmlns="http://www.w3.org/2000/svg">
<path d="M15.5 8.42498L15.025 7.17498C15.425 6.44998 15.6 5.59998 15.5 4.74998C15.3 2.79998 13.75 1.24998 11.8 1.04998C10.55 0.924983 9.29999 1.34998 8.39999 2.24998C7.57499 3.07498 7.12499 4.19998 7.17499 5.39998H7.14999H4.67499C2.32499 5.39998 0.424988 7.24998 0.424988 9.52498C0.424988 11.775 1.87499 13.35 5.39999 14.95C5.49999 15 5.59999 15.025 5.72499 15.025C5.87499 15.025 6.02499 14.975 6.14999 14.9C6.37499 14.75 6.49999 14.525 6.49999 14.25V13.675H7.17499C9.52499 13.675 11.425 11.825 11.425 9.54998C11.425 9.49998 11.425 9.44998 11.425 9.39998C12.125 9.39998 12.775 9.22498 13.4 8.87498L14.475 9.42498C14.575 9.47498 14.7 9.49998 14.825 9.49998C15 9.49998 15.2 9.42498 15.325 9.29998C15.55 9.04998 15.625 8.72498 15.5 8.42498ZM7.17499 12.5H6.14999C5.72499 12.5 5.37499 12.85 5.37499 13.275V13.65C2.64999 12.35 1.57499 11.175 1.57499 9.49998C1.57499 7.84998 2.97499 6.49998 4.69999 6.49998H7.17499C8.89999 6.49998 10.3 7.84998 10.3 9.49998C10.3 11.15 8.89999 12.5 7.17499 12.5ZM13.875 7.32498L14.125 7.94998L13.625 7.69998C13.45 7.59998 13.225 7.62498 13.05 7.72498C12.5 8.07498 11.875 8.24998 11.225 8.22498C10.8 6.92498 9.69999 5.89998 8.32499 5.52498V5.49998C8.22499 4.57498 8.54999 3.67498 9.19999 3.02498C9.84999 2.37498 10.75 2.04998 11.675 2.14998C13.1 2.29998 14.225 3.42498 14.375 4.84998C14.45 5.54998 14.3 6.22498 13.925 6.79998C13.825 6.97498 13.825 7.14998 13.875 7.32498Z" fill="#989CA7"/>
</svg>
