<svg width="16" height="16" viewBox="0 0 16 16" fill="none" xmlns="http://www.w3.org/2000/svg">
<path d="M13.0751 4.02502H8.2001C6.7001 4.02502 5.4751 5.25002 5.4751 6.75002V6.87502C5.4751 8.37502 6.7001 9.60002 8.2001 9.60002H8.6001V8.50002H8.2001C7.3251 8.50002 6.6001 7.77502 6.6001 6.90002V6.75002C6.6001 5.87502 7.3251 5.15002 8.2001 5.15002H13.0751C13.9501 5.15002 14.6751 5.87502 14.6751 6.75002V6.87502C14.6751 7.75002 13.9501 8.47502 13.0751 8.47502H11.1251V9.60002H13.0751C14.5751 9.60002 15.8001 8.37502 15.8001 6.87502V6.75002C15.8251 5.25002 14.6001 4.02502 13.0751 4.02502Z" fill="#2E77FA"/>
<path d="M7.8002 6.375H7.3752V7.5H7.8002C8.6752 7.5 9.4002 8.225 9.4002 9.1V9.25C9.4002 10.125 8.6752 10.85 7.8002 10.85H2.9252C2.0502 10.85 1.3252 10.125 1.3252 9.25V9.125C1.3252 8.25 2.0502 7.525 2.9252 7.525H4.8252V6.4H2.9252C1.4252 6.4 0.200195 7.625 0.200195 9.125V9.25C0.200195 10.75 1.4252 11.975 2.9252 11.975H7.8002C9.3002 11.975 10.5252 10.75 10.5252 9.25V9.125C10.5252 7.6 9.3002 6.375 7.8002 6.375Z" fill="#2E77FA"/>
</svg>
