<svg width="24" height="25" viewBox="0 0 24 25" fill="none" xmlns="http://www.w3.org/2000/svg">
<g clip-path="url(#clip0_991_3242)">
<path d="M21.15 24.2829H16.2375C15.0375 24.2829 14.025 23.3079 14.025 22.0704V18.0954C14.025 17.7954 13.8 17.5704 13.5 17.5704H10.5C10.2 17.5704 9.975 17.7954 9.975 18.0954V22.0704C9.975 23.3079 9 24.2829 7.7625 24.2829H2.85C1.65 24.2829 0.637501 23.3079 0.637501 22.0704V9.43291C0.637501 8.79541 0.937501 8.23291 1.4625 7.89541L11.025 1.85791C11.625 1.48291 12.375 1.48291 12.9375 1.85791L22.5 7.93291C23.025 8.27041 23.325 8.83291 23.325 9.47041V22.0704C23.3625 23.2704 22.35 24.2829 21.15 24.2829ZM10.5 15.8829H13.5C14.7375 15.8829 15.7125 16.8579 15.7125 18.0954V22.0704C15.7125 22.3704 15.9375 22.5954 16.2375 22.5954H21.15C21.45 22.5954 21.675 22.3704 21.675 22.0704V9.43291C21.675 9.39541 21.6375 9.35791 21.6375 9.32041L12.0375 3.28291C12 3.24541 11.9625 3.24541 11.925 3.28291L2.4 9.32041C2.3625 9.35791 2.325 9.39541 2.325 9.43291V22.0704C2.325 22.3704 2.55 22.5954 2.85 22.5954H7.7625C8.0625 22.5954 8.2875 22.3704 8.2875 22.0704V18.0954C8.2875 16.8954 9.2625 15.8829 10.5 15.8829Z" fill="white"/>
</g>
<defs>
<clipPath id="clip0_991_3242">
<rect width="24" height="24" fill="white" transform="translate(0 0.92041)"/>
</clipPath>
</defs>
</svg>
