<svg width="16" height="16" viewBox="0 0 16 16" fill="none" xmlns="http://www.w3.org/2000/svg">
<path d="M8.00004 1.33331C4.32004 1.33331 1.33337 4.31998 1.33337 7.99998C1.33337 11.68 4.32004 14.6666 8.00004 14.6666C11.68 14.6666 14.6667 11.68 14.6667 7.99998C14.6667 4.31998 11.68 1.33331 8.00004 1.33331ZM8.00004 13.3333C5.06004 13.3333 2.66671 10.94 2.66671 7.99998C2.66671 5.05998 5.06004 2.66665 8.00004 2.66665C10.94 2.66665 13.3334 5.05998 13.3334 7.99998C13.3334 10.94 10.94 13.3333 8.00004 13.3333ZM8.59337 7.39998C7.40671 7.00665 6.83337 6.75998 6.83337 6.13331C6.83337 5.45331 7.57337 5.20665 8.04004 5.20665C8.91337 5.20665 9.23337 5.86665 9.30671 6.09998L10.36 5.65331C10.26 5.35998 9.81337 4.37998 8.58671 4.16665V3.33331H7.42004V4.17331C5.68671 4.54665 5.67337 6.07331 5.67337 6.14665C5.67337 7.65998 7.17337 8.08665 7.90671 8.35331C8.96004 8.72665 9.42671 9.06665 9.42671 9.70665C9.42671 10.46 8.72671 10.78 8.10671 10.78C6.89337 10.78 6.54671 9.53331 6.50671 9.38665L5.40004 9.83331C5.82004 11.2933 6.92004 11.6866 7.41337 11.8066V12.6666H8.58004V11.84C8.92671 11.78 10.5934 11.4466 10.5934 9.69331C10.6 8.76665 10.1934 7.95331 8.59337 7.39998Z" fill="#686C71"/>
</svg>
