<svg width="24" height="25" viewBox="0 0 24 25" fill="none" xmlns="http://www.w3.org/2000/svg">
<path d="M7.8375 11.8704C10.1625 11.8704 12.075 10.0329 12.075 7.74536C12.075 5.45786 10.1625 3.62036 7.8375 3.62036C5.5125 3.62036 3.6 5.45786 3.6 7.74536C3.6 10.0329 5.5125 11.8704 7.8375 11.8704ZM7.8375 5.34536C9.225 5.34536 10.3875 6.43286 10.3875 7.78286C10.3875 9.13286 9.2625 10.2204 7.8375 10.2204C6.4125 10.2204 5.2875 9.13286 5.2875 7.78286C5.2875 6.43286 6.45 5.34536 7.8375 5.34536Z" fill="#989CA7"/>
<path d="M17.25 13.6704C19.275 13.6704 20.8875 12.0954 20.8875 10.1079C20.8875 8.12041 19.2375 6.54541 17.25 6.54541C15.2625 6.54541 13.6125 8.12041 13.6125 10.1079C13.6125 12.0954 15.2625 13.6704 17.25 13.6704ZM17.25 8.27041C18.3375 8.27041 19.2 9.09541 19.2 10.1454C19.2 11.1954 18.3375 12.0204 17.25 12.0204C16.1625 12.0204 15.3 11.1954 15.3 10.1454C15.3 9.09541 16.1625 8.27041 17.25 8.27041Z" fill="#989CA7"/>
<path d="M17.4375 14.0453H17.1C15.975 14.0453 14.8875 14.3828 13.95 14.9453C12.9375 13.5953 11.325 12.6953 9.525 12.6953H6.1875C3.1125 12.7328 0.674999 15.1703 0.674999 18.2078V20.9078C0.674999 21.6203 1.2375 22.1828 1.95 22.1828H22.0875C22.8 22.1828 23.4 21.5828 23.4 20.8703V19.9703C23.3625 16.7078 20.7 14.0453 17.4375 14.0453ZM2.3625 20.4953V18.2078C2.3625 16.1078 4.0875 14.3828 6.1875 14.3828H9.525C11.625 14.3828 13.35 16.1078 13.35 18.2078V20.4953H2.3625ZM21.675 20.4953H15V18.2078C15 17.6078 14.8875 17.0078 14.7 16.4453C15.375 15.9578 16.2 15.7328 17.0625 15.7328H17.4C19.725 15.7328 21.6375 17.6453 21.6375 19.9703V20.4953H21.675Z" fill="#989CA7"/>
</svg>
